<?xml version="1.0" standalone="no"?>
<!DOCTYPE svg PUBLIC "-//W3C//DTD SVG 20010904//EN"
 "http://www.w3.org/TR/2001/REC-SVG-20010904/DTD/svg10.dtd">
<svg version="1.0" xmlns="http://www.w3.org/2000/svg"
 width="1000.000000pt" height="1000.000000pt" viewBox="0 0 1000.000000 1000.000000"
 preserveAspectRatio="xMidYMid meet">

<g transform="translate(0.000000,1000.000000) scale(0.100000,-0.100000)"
fill="#000000" stroke="none">
<path d="M4781 7684 c-78 -21 -186 -80 -247 -137 l-54 -49 -84 11 c-194 26
-366 -47 -486 -207 -148 -198 -127 -482 50 -663 61 -62 162 -119 212 -119 60
0 36 28 -82 100 -153 92 -244 288 -210 449 18 84 70 190 120 245 82 89 262
150 381 130 l54 -9 -3 -52 c-7 -116 43 -193 124 -193 128 0 153 138 43 241
l-49 47 38 34 c52 47 97 73 169 97 54 18 86 21 242 21 148 0 190 -3 240 -19
68 -21 142 -65 184 -109 l28 -29 -36 -27 c-61 -47 -101 -157 -75 -206 6 -12
32 -31 56 -42 55 -24 100 -13 139 33 22 27 25 39 25 114 0 50 4 87 11 91 6 3
39 9 73 11 123 10 283 -52 361 -140 192 -218 152 -524 -90 -686 -41 -27 -83
-52 -95 -56 -11 -3 -20 -15 -20 -26 0 -52 150 9 240 99 96 96 150 227 150 362
0 312 -273 550 -584 508 l-76 -10 -58 49 c-31 28 -70 58 -87 69 -16 10 -32 21
-35 24 -3 3 -42 18 -87 33 -78 25 -93 27 -255 26 -118 0 -190 -5 -227 -15z
m-212 -309 c55 -63 53 -117 -6 -123 -41 -4 -73 36 -73 89 0 79 29 91 79 34z
m931 -23 c0 -36 -6 -66 -16 -80 -20 -29 -59 -29 -79 2 -14 21 -14 28 -2 58 15
35 61 77 85 78 8 0 12 -18 12 -58z"/>
<path d="M4283 6448 c-10 -17 -17 -1302 -8 -1505 6 -136 9 -153 25 -153 15 0
18 15 23 113 9 141 7 1330 -2 1456 -6 91 -18 119 -38 89z"/>
<path d="M5689 6444 c-12 -15 -14 -133 -14 -808 0 -435 3 -803 8 -818 4 -16
13 -28 21 -28 10 0 15 31 21 132 8 152 -4 1494 -14 1521 -7 18 -8 18 -22 1z"/>
<path d="M4972 6438 c-13 -16 -27 -1458 -15 -1532 5 -28 15 -53 25 -60 43 -27
43 -25 41 757 -2 408 -6 764 -10 791 -8 51 -22 66 -41 44z"/>
<path d="M4289 4714 c-8 -10 -15 -51 -17 -109 l-4 -92 -78 -11 c-99 -14 -184
-44 -229 -80 -19 -16 -50 -57 -68 -93 -28 -56 -33 -77 -39 -169 -11 -180 21
-240 172 -324 51 -28 99 -57 109 -65 26 -22 71 -119 89 -191 49 -193 127 -267
343 -327 54 -15 100 -28 102 -30 2 -2 -3 -11 -12 -21 -15 -16 -16 -26 -6 -76
7 -31 9 -59 6 -62 -3 -3 -23 4 -46 15 -58 30 -107 27 -182 -11 -50 -26 -70
-43 -93 -81 l-29 -48 19 -27 c12 -17 70 -52 150 -92 101 -51 156 -71 254 -95
69 -16 152 -30 185 -30 53 0 68 5 124 40 58 36 71 40 130 40 53 0 72 -5 98
-23 38 -27 69 -18 79 22 9 36 39 45 162 48 132 4 142 10 142 89 0 97 -66 189
-136 189 -19 0 -81 -20 -137 -44 -169 -74 -203 -81 -367 -81 -147 0 -201 9
-300 52 -35 15 -35 15 -11 24 22 9 23 13 17 56 -3 25 -12 58 -20 74 -13 25
-12 28 8 33 11 3 122 6 246 6 446 0 632 39 736 152 60 65 80 104 110 211 33
119 69 179 130 215 126 75 166 105 194 143 43 61 53 108 45 219 -8 115 -37
188 -98 248 -56 54 -114 79 -225 93 l-92 13 0 82 c0 89 -11 134 -34 134 -20 0
-26 -32 -26 -147 0 -75 4 -105 14 -116 8 -8 45 -17 83 -20 227 -21 313 -112
313 -332 0 -123 -27 -163 -152 -226 -137 -69 -171 -113 -208 -272 -11 -49 -27
-102 -36 -118 -27 -54 -87 -110 -148 -141 -104 -52 -210 -69 -482 -75 -246 -6
-388 4 -500 33 -166 43 -268 143 -295 291 -12 66 -49 154 -84 200 -17 21 -57
47 -120 77 -83 40 -99 52 -125 93 -28 44 -30 52 -30 152 0 90 4 114 24 156 47
101 122 144 289 164 43 5 82 12 85 16 11 10 5 246 -5 256 -6 6 -15 4 -24 -7z"/>
<path d="M5241 3871 c-24 -24 -36 -110 -22 -154 8 -22 24 -41 46 -53 18 -10
31 -22 29 -26 -3 -5 -24 -18 -47 -31 -37 -19 -57 -22 -167 -22 -141 0 -210 17
-289 69 -45 30 -60 57 -88 151 -11 38 -34 39 -47 2 -13 -36 6 -108 40 -152 59
-77 158 -121 310 -136 114 -11 222 -1 275 27 47 24 104 89 117 132 7 22 12 65
12 96 0 65 -17 89 -77 105 -54 15 -70 14 -92 -8z m98 -65 c15 -18 10 -108 -6
-113 -7 -3 -24 7 -38 21 -18 19 -25 36 -25 66 0 37 2 40 29 40 16 0 34 -6 40
-14z"/>
<path d="M5307 3184 c-9 -9 -9 -67 -1 -88 10 -26 43 -19 50 10 12 48 -23 104
-49 78z"/>
<path d="M4183 2860 c-132 -87 -222 -217 -261 -380 -29 -120 -31 -141 -33
-263 -1 -75 3 -112 12 -123 25 -30 39 11 39 115 0 221 67 397 201 534 44 44
84 77 96 77 20 0 63 38 63 57 0 9 -30 22 -50 23 -3 0 -33 -18 -67 -40z"/>
<path d="M5717 2883 c-16 -16 -3 -31 54 -64 127 -71 236 -230 274 -399 9 -41
20 -130 24 -198 9 -125 15 -148 40 -133 10 6 13 33 12 99 -4 279 -63 456 -198
590 -88 88 -178 134 -206 105z"/>
<path d="M5360 2756 c-20 -43 -22 -58 -18 -147 5 -90 8 -104 34 -142 48 -68
98 -97 181 -104 110 -9 135 -1 160 51 50 102 38 219 -29 292 -67 73 -95 85
-207 91 l-98 6 -23 -47z"/>
<path d="M5063 2719 c-126 -62 -160 -269 -63 -392 68 -87 156 -65 242 61 27
39 32 57 36 121 5 96 -10 155 -53 198 -27 27 -40 33 -76 33 -24 -1 -63 -10
-86 -21z"/>
<path d="M4842 2668 c-7 -7 -12 -30 -12 -52 0 -64 -28 -99 -97 -124 -72 -26
-90 -45 -113 -114 l-17 -53 -49 -5 c-55 -6 -74 -15 -74 -35 0 -26 38 -35 153
-35 85 0 117 4 126 14 24 29 -8 56 -66 56 -60 0 7 98 85 125 26 8 55 22 65 29
31 24 45 184 17 201 -4 2 -12 -1 -18 -7z"/>
<path d="M4606 2225 c5 -12 -4 -15 -49 -15 -99 0 -106 -58 -8 -73 l52 -9 -7
-32 c-4 -24 -1 -38 12 -51 17 -16 18 -16 31 1 7 10 13 33 13 51 0 32 1 33 44
33 27 0 51 6 60 16 31 30 15 50 -52 64 -28 7 -54 16 -58 21 -9 16 -44 11 -38
-6z"/>
</g>
</svg>
